<svg xmlns="http://www.w3.org/2000/svg" xmlns:xlink="http://www.w3.org/1999/xlink" viewBox="0 0 280 250" preserveAspectRatio="xMidYMid" style="display: block; shape-rendering: auto; background: rgb(253, 253, 253);" width="280" height="250"><style type="text/css">
  .ld-text text {
    text-anchor: middle;
    dominant-baseline: middle;
    font-size: 58px;
    opacity: 0;
    user-select: none;
    pointer-events: none;
  }
</style>
<g style="transform-origin:140px 125px;transform:scale(1)" class="ld-text">
<g transform="translate(140,125)">
  <g transform="scale(0.7250) translate(0,0)"><g class="path" style="opacity: 1; animation: 1s linear -0.528s infinite normal forwards running animate-9dsm95jyt4j; transform-box: view-box; transform-origin: -70.84px -1.99px;"><path d="M13.52 38.83Q10.96 36.43 8.64 35.19Q6.32 33.95 3 33.95Q-0.32 33.95-2.28 35.19Q-4.24 36.43-4.24 38.71Q-4.24 40.99-1.64 42.39Q0.96 43.79 4.48 43.79Q8 43.79 10.72 43.15L10.72 43.15Q12.32 41.71 13.52 38.83L13.52 38.83 zM27.04 46.95Q28.40 47.39 29.92 47.55Q31.44 47.71 33.96 47.71Q36.48 47.71 39.12 46.35Q41.76 44.99 43.32 43.19Q44.88 41.39 46.08 39.15L46.08 39.15Q47.60 36.51 48.32 33.87L48.32 33.87L50.24 34.51Q48.16 41.31 43.64 45.31Q39.12 49.31 33.12 49.31L33.12 49.31Q28.40 49.31 26.60 48.63Q24.80 47.95 24 47.75Q23.20 47.55 21.88 46.55Q20.56 45.55 20.32 45.39L20.32 45.39Q19.68 44.91 17.04 42.27L17.04 42.27Q11.92 45.31 6 45.31Q0.08 45.31-3.04 43.43Q-6.16 41.55-6.16 38.71Q-6.16 35.87-3.88 34.15Q-1.60 32.43 2.96 32.43L2.96 32.43Q9.20 32.43 14.16 37.07L14.16 37.07Q15.12 34.11 15.76 30.51L15.76 30.51L21.12-0.45Q23.04-12.45 29.44-16.61L29.44-16.61Q35.04-20.21 42.16-20.21Q49.28-20.21 53.80-16.13Q58.32-12.05 58.32-3.25L58.32-3.25L56.40-3.25Q56.40-10.37 53-14.09Q49.60-17.81 44.40-17.81L44.40-17.81Q34.88-17.81 33.12-5.97L33.12-5.97Q33.12-4.69 31.08 7.19Q29.04 19.07 27.44 26.83L27.44 26.83Q25.76 36.19 18.48 41.31L18.48 41.31Q22.80 45.63 24.88 46.27L24.88 46.27Q25.68 46.51 27.04 46.95" style="fill: rgb(33, 150, 243);" transform="translate(-96.920,-16.536)"></path></g><g class="path" style="opacity: 1; animation: 1s linear -0.396s infinite normal forwards running animate-9dsm95jyt4j; transform-box: view-box; transform-origin: -26.12px 1.33px;"><path d="M81.76 33.79L81.76 33.79Q74.72 33.79 74.08 27.63L74.08 27.63Q70.56 33.79 65.20 33.79Q59.84 33.79 56.68 30.55Q53.52 27.31 53.52 21.47L53.52 21.47Q53.52 12.35 58 7.15Q62.48 1.95 69.60 1.95L69.60 1.95Q75.44 1.95 77.36 7.47L77.36 7.47Q77.76 5.07 78.24 2.67L78.24 2.67Q84.16 2.67 87.04 2.19L87.04 2.19L88.08 1.95L82.56 32.19Q84.96 31.95 86.56 29.95L86.56 29.95L87.76 30.91Q85.36 33.79 81.76 33.79 zM62.56 25.55Q62.56 29.15 63.48 30.55Q64.40 31.95 66.32 31.95Q68.24 31.95 70.24 29.87L70.24 29.87Q72.88 27.15 74.48 22.99L74.48 22.99Q74.72 21.95 75.40 17.99Q76.08 14.03 76.56 11.47L76.56 11.47Q76.32 8.43 74.88 6.19Q73.44 3.95 71.28 3.95L71.28 3.95Q67.36 3.95 64.96 10.95Q62.56 17.95 62.56 25.55L62.56 25.55" style="fill: rgb(33, 150, 243);" transform="translate(-96.920,-16.536)"></path></g><g class="path" style="opacity: 1; animation: 1s linear -0.264s infinite normal forwards running animate-9dsm95jyt4j; transform-box: view-box; transform-origin: 12.92px 8.33px;"><path d="M97.20 3.55L97.20 3.55Q95.28 3.55 93.20 5.79L93.20 5.79L92 4.83Q92.56 3.71 94.48 2.83Q96.40 1.95 98.72 1.95L98.72 1.95Q106 1.95 106 8.51L106 8.51Q106 11.31 104.48 17.67Q102.96 24.03 102.96 26.27L102.96 26.27Q102.96 30.11 106.16 30.11L106.16 30.11Q108.80 30.11 111.32 26.51Q113.84 22.91 115.44 16.83L115.44 16.83L118.08 2.67Q124 2.67 126.72 2.19L126.72 2.19L127.76 1.95L122.72 30.27Q121.28 38.51 116.04 43.15Q110.80 47.79 102.48 47.79L102.48 47.79Q97.44 47.79 94.68 46.07Q91.92 44.35 91.92 41.59Q91.92 38.83 93.60 37.19Q95.28 35.55 98.36 35.55Q101.44 35.55 104.08 36.55Q106.72 37.55 107.92 37.71L107.92 37.71L107.76 39.15Q106.40 38.99 103.84 38.03Q101.28 37.07 98.76 37.07Q96.24 37.07 94.92 38.19Q93.60 39.31 93.60 41.43Q93.60 43.55 95.92 44.87Q98.24 46.19 101.68 46.19L101.68 46.19Q110 46.19 111.92 36.19L111.92 36.19L113.92 25.15Q110.56 32.51 103.76 32.51L103.76 32.51Q99.12 32.51 96.60 29.87Q94.08 27.23 94.08 22.43L94.08 22.43Q94.08 19.95 95.56 13.51Q97.04 7.07 97.20 3.55" style="fill: rgb(33, 150, 243);" transform="translate(-96.920,-16.536)"></path></g><g class="path" style="opacity: 1; animation: 1s linear -0.132s infinite normal forwards running animate-9dsm95jyt4j; transform-box: view-box; transform-origin: 45.52px -9.03px;"><path d="M145.52 30.19Q144.48 31.55 142.68 32.67Q140.88 33.79 138 33.79Q135.12 33.79 133.12 31.95Q131.12 30.11 131.12 26.75L131.12 26.75Q131.12 26.11 131.28 24.67L131.28 24.67L136.48-4.13Q137.92-12.05 140.44-15.41Q142.96-18.77 147.12-18.77L147.12-18.77Q150-18.77 151.88-16.61Q153.76-14.45 153.76-10.05Q153.76-5.65 150.36 2.51Q146.96 10.67 146.96 14.43L146.96 14.43L145.52 14.43Q145.52 10.19 148.88 2.31Q152.24-5.57 152.24-10.29L152.24-10.29Q152.24-13.17 150.92-15.25Q149.60-17.33 147.68-17.33L147.68-17.33Q147.60-15.25 144.92 1.35Q142.24 17.95 139.60 32.19L139.60 32.19Q141.84 32.19 143.76 29.87Q145.68 27.55 146.48 25.23L146.48 25.23L147.36 22.83L148.80 23.47Q148.56 24.59 147.56 26.71Q146.56 28.83 145.52 30.19" style="fill: rgb(33, 150, 243);" transform="translate(-96.920,-16.536)"></path></g><g class="path" style="opacity: 1; animation: 1s linear 0s infinite normal forwards running animate-9dsm95jyt4j; transform-box: view-box; transform-origin: 73.48px 1.33px;"><path d="M181.36 33.79L181.36 33.79Q174.32 33.79 173.68 27.63L173.68 27.63Q170.16 33.79 164.80 33.79Q159.44 33.79 156.28 30.55Q153.12 27.31 153.12 21.47L153.12 21.47Q153.12 12.35 157.60 7.15Q162.08 1.95 169.20 1.95L169.20 1.95Q175.04 1.95 176.96 7.47L176.96 7.47Q177.36 5.07 177.84 2.67L177.84 2.67Q183.76 2.67 186.64 2.19L186.64 2.19L187.68 1.95L182.16 32.19Q184.56 31.95 186.16 29.95L186.16 29.95L187.36 30.91Q184.96 33.79 181.36 33.79 zM162.16 25.55Q162.16 29.15 163.08 30.55Q164 31.95 165.92 31.95Q167.84 31.95 169.84 29.87L169.84 29.87Q172.48 27.15 174.08 22.99L174.08 22.99Q174.32 21.95 175 17.99Q175.68 14.03 176.16 11.47L176.16 11.47Q175.92 8.43 174.48 6.19Q173.04 3.95 170.88 3.95L170.88 3.95Q166.96 3.95 164.56 10.95Q162.16 17.95 162.16 25.55L162.16 25.55" style="fill: rgb(33, 150, 243);" transform="translate(-96.920,-16.536)"></path></g></g><text dy="0.35em" fill="#2196f3" font-family="Sail" font-size="58">Layla</text>
</g>
</g><style type="text/css">@keyframes animate-9dsm95jyt4j { 0.00% {animation-timing-function: cubic-bezier(0.33,0.00,0.67,0.00);transform: translate(0.00px,0.00px) rotate(0.00deg) scale(1.00, 1.00) skew(0deg, 0.00deg) ;opacity: 1.00;}48.00% {transform: translate(0.00px,0.00px) rotate(0.00deg) ;opacity: 1.00;}50.00% {animation-timing-function: cubic-bezier(0.33,0.00,0.67,0.00);transform: translate(0.00px,0.00px) rotate(0.00deg) ;opacity: 0.00;}100.00% {animation-timing-function: cubic-bezier(0.33,0.00,0.67,0.00);transform: translate(0.00px,0.00px) rotate(0.00deg) ;opacity: 0.00;} }</style><!-- [ldio] generated by https://loading.io --></svg>